<svg xmlns="http://www.w3.org/2000/svg" fill="none" viewBox="0 0 32 32"><g clip-path="url(#a)"><path fill="#C69A40" d="m2.74 16.884 4.067-3.226v16.265L2.74 32V16.884Z"/><path fill="#F5CA5C" d="M6.807 29.923 10.873 32V17.06l-4.066-3.402v16.265Z"/><path fill="#C69A40" d="M11.58 11.934 16 8.265v21.127l-4.42 2.299V11.934Z"/><path fill="#C69A40" d="M12.906 7.396 16 4.552v3.702l-3.094 2.663v-3.52Z"/><path fill="#F5CA5C" d="m16 8.254 3.094 2.663v-3.52L16 4.551v3.702Z"/><path fill="url(#b)" d="m6.586 13.834.22-.176.222.176-.045 16.177-.176-.088-.177.088-.044-16.177Z"/><path fill="#F5CA5C" d="m16 29.392 4.42 2.254V11.978L16 8.265v21.127Z"/><path fill="#C69A40" d="m21.039 16.884 4.066-3.226v16.265L21.039 32V16.884Z"/><path fill="url(#c)" d="M15.823 4.744 16 4.552l.177.192v24.692L16 29.333l-.177.104V4.743Z"/><path fill="url(#d)" d="M15.646.118 16 0l.354.118v4.788L16 4.578l-.354.328V.118Z"/><path fill="#F5CA5C" d="M25.105 29.923 29.171 32V17.06l-4.066-3.402v16.265Z"/><path fill="url(#e)" d="M25.105 18.74h.354v.177h-.354z"/><path fill="url(#f)" d="m24.884 13.834.221-.176.221.176-.044 16.177-.177-.088-.177.088-.044-16.177Z"/><path fill="#B18C3D" d="M12.906 10.166 16 7.558v.707l-3.094 2.564v-.663Z"/><path fill="#DEA940" d="m16 8.265 3.094 2.6v-.655L16 7.558v.707Z"/><path fill="url(#g)" d="M15.823 7.747 16 7.558l.177.15v.702L16 8.265l-.177.145v-.663Z"/></g><defs><linearGradient id="b" x1="6.983" x2="6.63" y1="21.746" y2="21.746" gradientUnits="userSpaceOnUse"><stop stop-color="#F5C959"/><stop offset="1" stop-color="#C69A40"/></linearGradient><linearGradient id="c" x1="16.221" x2="15.867" y1="16.934" y2="16.934" gradientUnits="userSpaceOnUse"><stop stop-color="#F5C959"/><stop offset="1" stop-color="#C69A40"/></linearGradient><linearGradient id="d" x1="16.442" x2="15.735" y1="2.283" y2="2.283" gradientUnits="userSpaceOnUse"><stop offset=".231" stop-color="#F5C959"/><stop offset=".827" stop-color="#C69A40"/></linearGradient><linearGradient id="e" x1="25.459" x2="25.105" y1="18.829" y2="18.829" gradientUnits="userSpaceOnUse"><stop stop-color="#F5C959"/><stop offset="1" stop-color="#C69A40"/></linearGradient><linearGradient id="f" x1="25.282" x2="24.928" y1="21.746" y2="21.746" gradientUnits="userSpaceOnUse"><stop stop-color="#F5C959"/><stop offset="1" stop-color="#C69A40"/></linearGradient><linearGradient id="g" x1="16.177" x2="15.823" y1="7.956" y2="7.956" gradientUnits="userSpaceOnUse"><stop stop-color="#DEA940"/><stop offset="1" stop-color="#B18C3D"/></linearGradient><clipPath id="a"><path fill="#fff" d="M0 0h32v32H0z"/></clipPath></defs></svg>