<svg xmlns="http://www.w3.org/2000/svg" fill="none" viewBox="0 0 146 24" class="max-w-[146px] w-full mx-auto" role="img" aria-label="Silver Sands logo"><path fill="#004c6e" d="M48.247 19.63c.26.123.512.337.778.357 4.27.32 7.936-.802 10.534-4.427.133-.185.267-.374.427-.535.48-.48.497-.945.116-1.52-.573-.862-.474-1.766.176-2.442.903-.94 2.354-.706 2.785.517.254.72.663 1 1.388 1.063.54.048 1.083.197 1.595.382 1.33.48 1.827 1.64 1.106 2.842-.606 1.008-1.398 1.905-2.119 2.845-.27.352-.567.683-.903 1.083.826.487 1.535.38 2.167-.042a51 51 0 0 0 3.055-2.2c.712-.553 1.198-.653 1.701-.204q.684.607.012 1.67c-1.366 2.168-5.247 3.649-7.715 2.943a3.4 3.4 0 0 1-.513-.193c-1.143-.534-1.54-1.386-.964-2.497.614-1.185 1.379-2.296 2.12-3.411.367-.553.334-.72-.313-.853-.575-.117-.965.144-1.303.562-.745.922-1.465 1.866-2.251 2.752-1.826 2.06-4.231 3.088-6.876 3.554-1.388.244-2.82.311-4.233.331-1.275.018-2.362-.465-3.058-1.635-.098-.164-.448-.297-.65-.263-1.264.215-2.503.25-3.72-.235-.603-.24-1.04.102-1.501.422-.842.584-1.665 1.218-2.576 1.673-1.588.796-2.913.312-3.701-1.285-.253-.514-.498-.546-.948-.287-1.958 1.127-4.046 1.816-6.338 1.731-1.495-.056-2.859-.433-3.787-1.723-.278-.386-.506-.196-.804-.021-.941.552-1.86 1.173-2.866 1.575-1.148.46-2.374.491-3.536-.092-1.383-.694-2.06-1.96-1.857-3.486.212-1.584.74-3.048 1.755-4.31.354-.439.771-.756 1.357-.428.576.322.667.813.434 1.407-.34.868-.666 1.744-.99 2.618-.439 1.187.199 2.094 1.47 1.99.575-.048 1.145-.28 1.692-.493 2.008-.78 2.984-2.45 3.863-4.284 1.724-3.594 3.557-7.136 5.356-10.694.674-1.333 1.883-1.949 3.205-1.67 1.298.272 2.13 1.366 2.213 2.849.333 5.884-3.11 10.452-8.35 12.744-.32.14-.863.114-.779.683.085.571.52.758 1.048.792 1.97.128 3.88-.032 5.664-1.004 1.088-.592 1.829-1.401 2.129-2.614.114-.46.298-.91.506-1.337.228-.468.588-.76 1.166-.55.583.211.899.693.77 1.276-.107.488-.303.955-.413 1.442-.195.861-.197 1.709.246 2.52.184.336.383.427.7.187.11-.083.233-.146.346-.224.45-.31 1.102-.534 1.284-.958.158-.368-.227-.96-.358-1.455-.294-1.106-.038-2.1.762-2.894.841-.837 1.9-1.08 3.047-.765.832.227 1.345 1.072 1.216 2.056a8.4 8.4 0 0 1-.472 1.843c-.213.572-.003.797.517.926 1.273.314 2.57-.275 3.223-1.497.726-1.36 1.682-2.501 3.115-3.159 1.186-.545 2.434-.831 3.74-.528 1.903.442 2.52 2.182 1.319 3.718-.84 1.074-2.024 1.619-3.305 1.958-.683.18-1.393.263-2.087.408-.269.056-.527.163-.79.247l-.025.249zm-21.722-5.228c3.855-2.047 5.471-6.341 4.574-8.846zm26.165.812c-1.103-.298-2.666.498-2.915 1.442 1.09.108 2.458-.552 2.915-1.442M140.731 19.597c.95-.645 1.818-1.254 2.709-1.829.313-.201.695-.454 1.026-.428.316.025.701.32.887.606.3.46.111.982-.299 1.278-1.052.758-2.094 1.56-3.243 2.142-1.649.834-3.464 1.163-5.317 1.222-1.295.042-2.453-.303-3.354-1.272-.299-.321-.568-.41-.946-.15-.225.155-.483.26-.726.387-1.73.905-3.061.618-4.277-.92-.067-.086-.143-.166-.261-.302-.325.251-.623.487-.927.716-1.181.892-2.445 1.523-3.996 1.29-.829-.126-1.547-.456-2.017-1.163-.266-.4-.49-.344-.836-.125-1.33.84-2.746 1.354-4.361 1.065-1.765-.316-2.404-1.544-1.52-3.1.516-.906 1.193-1.722 1.782-2.588.168-.246.283-.53.422-.794l-.174-.2c-.412.234-.896.393-1.224.711-1.604 1.558-3.165 3.16-4.746 4.741-.274.274-.549.553-.856.786-1.53 1.158-3.05 1.03-4.319-.405-.312-.352-.52-.365-.912-.155-.702.378-1.43.722-2.177 1.001-.969.363-1.914.216-2.715-.443-.416-.342-.787-.352-1.253-.164a22 22 0 0 1-1.876.662c-1.362.412-2.554.063-3.507-.952-.965-1.026-1.195-2.273-.637-3.55 1.175-2.685 3.19-4.369 6.187-4.637.72-.064 1.49.17 2.204.383.509.15.71.638.609 1.166-.1.524-.488.755-.998.764-.365.005-.73-.065-1.096-.063-1.978.014-3.956 1.543-4.476 3.448-.234.858.075 1.27.946 1.13.502-.08 1.032-.263 1.447-.547.847-.578 1.627-1.254 2.43-1.894.428-.341.873-.656 1.419-.274.53.373.545.908.363 1.473-.014.043-.044.083-.049.127q-.065.547-.125 1.095c.421-.043.877.004 1.256-.145 1.571-.621 2.618-1.87 3.648-3.131.49-.6.992-1.193 1.517-1.763.39-.424.845-.63 1.384-.204.544.429.669.98.283 1.563-.403.607-.855 1.182-1.279 1.776-.132.185-.3.373-.348.583-.081.352-.078.724-.109 1.086.306-.13.669-.197.911-.403 1.837-1.572 3.642-3.181 5.481-4.753.413-.352.898-.633 1.382-.888.992-.524 2.248-.333 3.068.421.615.566.78 1.35.335 2.186-.566 1.064-1.222 2.081-1.821 3.129-.115.201-.145.45-.214.676.253.033.531.15.756.086 1.454-.42 2.588-1.323 3.57-2.438.901-1.024 1.704-2.161 2.729-3.046 1.424-1.23 3.074-1.83 4.911-.72.41.249.506-.079.626-.359q1.616-3.765 3.237-7.529c.279-.647.549-1.299.852-1.935.398-.836 1.451-1.332 2.364-1.145.686.141.986.731.694 1.422-1.178 2.788-2.367 5.57-3.548 8.358-.745 1.761-1.507 3.516-2.198 5.297-.133.34-.094.87.092 1.179.276.458.82.382 1.228.113.87-.574 1.739-1.157 2.55-1.809.687-.552 1.404-.63 1.74.036.174.346.168.894.023 1.265-.401 1.028-.23 1.352.876 1.276.404-.028.827-.103 1.197-.26.784-.33.925-1.044.322-1.64-.402-.4-.919-.684-1.322-1.082-.429-.425-.899-.872-1.143-1.403-.335-.73.134-1.692.911-2.24a2.47 2.47 0 0 1 2.72-.046c.655.43.851 1.07.586 2.058-.142.53-.096.966.329 1.365.64.6 1.001 1.346 1.042 2.235.007.15.075.296.153.59zm-17.778.238c1.049.019 3.402-1.577 3.647-2.567.099-.401-.072-.95-.303-1.318-.131-.208-.663-.312-.963-.244-1.208.277-2.793 2.225-2.922 3.459-.047.461.09.71.541.67M4.474 24c-.431-.019-.73-.021-1.025-.048C1.43 23.77.375 21.714 1.402 19.97c.326-.555.778-.681 1.478-.463.586.183.769.514.653 1.13-.158.85.032 1.017.902.97 1.395-.078 2.726-.387 3.869-1.227.435-.32.84-.706 1.177-1.127.55-.686.513-.971-.228-1.433-1.493-.93-3.025-1.795-4.528-2.71a19 19 0 0 1-1.867-1.27C.776 12.194.074 10.043.748 7.512 1.757 3.714 4.09 1.145 8.006.186c2.268-.554 3.925.225 4.993 2.31 1.25 2.445.996 4.884-.113 7.3-.218.475-.451.945-.716 1.396-.41.7-.973.406-1.497.167-.512-.234-.94-.554-.653-1.21.31-.708.692-1.387.97-2.106.556-1.441.522-2.889-.112-4.307-.554-1.238-1.295-1.575-2.594-1.188-2.34.696-3.862 2.265-4.774 4.467-.172.417-.295.857-.41 1.294-.404 1.543.173 2.773 1.419 3.623 1.409.962 2.934 1.755 4.38 2.666.79.496 1.576 1.024 2.266 1.645 1.42 1.278 1.569 2.798.407 4.322C9.768 22.933 7.258 23.902 4.475 24M91.176 5.776c.022 2.034-.712 3.72-1.598 5.352-.34.625-.784.642-1.66.177-.647-.344-.772-.689-.494-1.338.41-.958.922-1.89 1.2-2.884.363-1.297.098-2.576-.602-3.742-.494-.824-1.099-1.08-2.024-.89-2.786.571-5.402 3.544-5.631 6.37-.098 1.215.292 2.253 1.284 2.923 1.509 1.02 3.12 1.888 4.646 2.884.893.583 1.796 1.2 2.531 1.958 1.135 1.17 1.181 2.375.264 3.717-1.611 2.361-3.974 3.409-6.748 3.659a8 8 0 0 1-1.782-.046c-1.916-.255-2.859-2.576-1.688-4.117.413-.543.939-.444 1.488-.245.507.182.618.5.509 1.016-.184.872.026 1.085.904 1.038 1.82-.097 3.462-.632 4.762-1.97.896-.922.863-1.354-.215-2.016-1.441-.883-2.915-1.715-4.367-2.581-1.204-.718-2.337-1.515-3.144-2.699-1.07-1.567-1.229-3.27-.69-5.026 1.157-3.764 3.523-6.32 7.5-7.2 1.843-.408 3.484.268 4.46 1.896.714 1.19 1.146 2.477 1.095 3.763z"/><path fill="#004c6e" d="M22.762 8.222c-.477.293-.968.574-1.438.885-.435.29-.788.66-.981 1.157-.128.332-.19.68-.179 1.033.019.549.064 1.096.098 1.644 0 .012.002.024-.016.043q-.114-.214-.232-.426c-.249-.445-.506-.883-.833-1.278a2.37 2.37 0 0 0-1.671-.882c-.633-.058-1.261.003-1.889.07-.047.004-.093.009-.149-.005q.17-.09.338-.182c.48-.263.956-.533 1.383-.883q.796-.652.885-1.674c.057-.647-.01-1.288-.078-1.93l-.005-.06c0-.005.007-.01.012-.017.17.3.334.601.51.897.213.359.448.702.742 1.003.404.413.9.626 1.47.684.63.064 1.254.001 1.879-.064q.076-.008.153-.015c.006 0 .01.006.002 0z"/></svg>