<svg xmlns="http://www.w3.org/2000/svg" fill="none" viewBox="0 0 471 547"><path fill="#C69A40" d="m86 191 46-36.5v184L86 362V191Z"/><path fill="#F5CA5C" d="m132 338.5 46 23.5V193l-46-38.5v184Z"/><path fill="#C69A40" d="m186 135 50-41.5v239l-50 26V135Z"/><path fill="#C69A40" d="m201 83.67 35-32.17v41.872L201 123.5V83.67Z"/><path fill="#F5CA5C" d="m236 93.372 35 30.128V83.67L236 51.5v41.872Z"/><path fill="url(#a)" d="m129.5 156.5 2.5-2 2.5 2-.5 183-2-1-2 1-.5-183Z"/><path fill="#F5CA5C" d="m236 332.5 50 25.5V135.5l-50-42v239Z"/><path fill="#C69A40" d="m293 191 46-36.5v184L293 362V191Z"/><path fill="url(#b)" d="m234 53.665 2-2.165 2 2.165V333l-2-1.171-2 1.171V53.665Z"/><path fill="url(#c)" d="M232 1.338 236 0l4 1.338V55.5l-4-3.717-4 3.717V1.338Z"/><path fill="#F5CA5C" d="m339 338.5 46 23.5V193l-46-38.5v184Z"/><path fill="url(#d)" d="M339 212h4v2h-4z"/><path fill="url(#e)" d="m336.5 156.5 2.5-2 2.5 2-.5 183-2-1-2 1-.5-183Z"/><path fill="#B18C3D" d="m201 115 35-29.5v8l-35 29V115Z"/><path fill="#DEA940" d="m236 93.5 35 29.413V115.5l-35-30v8Z"/><path fill="url(#f)" d="m234 87.637 2-2.137 2 1.707v7.93l-2-1.637-2 1.636v-7.5Z"/><path fill="#FFF" d="M55.041 488.664h-20.1v-81.959H0v-18.302h89.983v18.302H55.04v81.959ZM125.463 488.664h-20.028V388.403h38.976c10.422 0 19.307 3.006 26.656 9.017 7.396 6.056 11.095 14.495 11.095 25.316 0 13.76-5.812 23.891-17.435 30.392l21.829 34.601-.576.935h-20.677l-18.731-29.791c-3.362.178-5.331.267-5.908.267h-15.201v29.524Zm15.057-83.295h-15.057v36.805h12.392c7.156 0 12.919-1.715 17.29-5.144 4.419-3.473 6.628-8.104 6.628-13.893 0-5.656-1.969-10.02-5.907-13.092-3.891-3.117-9.006-4.676-15.346-4.676ZM224.982 488.664h-20.101V388.403h20.101v100.261ZM299.302 490c-15.802 0-28.89-4.876-39.264-14.628-10.326-9.842-15.489-22.11-15.489-36.805 0-14.339 5.163-26.541 15.489-36.605 10.423-9.975 23.703-14.962 39.84-14.962 16.042 0 29.13 4.987 39.264 14.962 10.135 9.797 15.202 21.954 15.202 36.471 0 14.384-5.164 26.607-15.49 36.671C328.624 485.035 315.44 490 299.302 490Zm34.653-51.433c0-9.708-3.242-17.634-9.726-23.78-6.484-6.279-14.745-9.418-24.783-9.418-9.798 0-18.011 3.139-24.639 9.418-6.58 6.235-9.87 14.161-9.87 23.78 0 9.351 3.29 17.211 9.87 23.579 6.58 6.368 14.793 9.552 24.639 9.552 9.75 0 17.915-3.184 24.495-9.552 6.676-6.457 10.014-14.317 10.014-23.579ZM393.858 488.664H373.83V387h1.297l73.773 63.657v-62.254H469V490h-1.369l-73.773-63.59v62.254Z"/><path fill="url(#g)" d="M1 497h470v9H1v-9Z"/><path fill="#FFF" d="M102.325 546.598H96v-30.176h6.325v13.47h17.632v-13.47h6.325v30.176h-6.325V535.4h-17.632v11.198ZM156.738 547c-4.99 0-9.123-1.468-12.399-4.403-3.261-2.962-4.892-6.654-4.892-11.077 0-4.316 1.631-7.988 4.892-11.017 3.291-3.002 7.485-4.503 12.581-4.503 5.066 0 9.199 1.501 12.399 4.503 3.2 2.949 4.801 6.608 4.801 10.977 0 4.329-1.631 8.008-4.892 11.037-3.231 2.989-7.394 4.483-12.49 4.483Zm10.943-15.48c0-2.922-1.024-5.307-3.071-7.157-2.048-1.89-4.657-2.834-7.827-2.834-3.094 0-5.687.944-7.781 2.834-2.077 1.877-3.116 4.262-3.116 7.157 0 2.815 1.039 5.18 3.116 7.097 2.078 1.916 4.672 2.875 7.781 2.875 3.079 0 5.658-.959 7.736-2.875 2.108-1.944 3.162-4.309 3.162-7.097ZM207.852 541.089v5.509h-20.59v-30.176h6.325v24.667h14.265ZM230.527 546.598h-10.101v-30.176h11.921c5.036 0 9.108 1.273 12.218 3.82 3.139 2.573 4.709 6.105 4.709 10.595 0 5.093-1.729 8.999-5.187 11.72-3.443 2.694-7.963 4.041-13.56 4.041Zm1.07-24.667h-4.846v19.158h3.321c8.509 0 12.764-3.35 12.764-10.051 0-2.976-.971-5.234-2.912-6.775-1.927-1.555-4.702-2.332-8.327-2.332ZM269.037 546.598h-6.347v-30.176h6.347v30.176ZM290.803 546.598h-6.325V516h.41l23.297 19.159v-18.737h6.347V547h-.432l-23.297-19.139v18.737ZM345.034 534.978v-5.086h14.151v12.343c-1.411 1.394-3.36 2.54-5.847 3.438-2.487.885-5.255 1.327-8.304 1.327-5.005 0-9.169-1.468-12.49-4.403-3.261-2.962-4.892-6.667-4.892-11.117 0-4.436 1.646-8.109 4.937-11.017 3.322-2.975 7.485-4.463 12.49-4.463 5.006 0 9.29 1.635 12.855 4.905l-4.573 3.88c-2.26-2.171-5.036-3.256-8.327-3.256-3.109 0-5.718.971-7.826 2.915-2.078 1.916-3.117 4.262-3.117 7.036 0 2.841 1.039 5.22 3.117 7.137 2.078 1.916 4.686 2.875 7.826 2.875 3.382 0 6.143-.724 8.281-2.172v-4.342h-8.281ZM371.896 524.323c0-2.547.978-4.564 2.934-6.051 1.942-1.515 4.452-2.272 7.531-2.272 4.171 0 7.546 1.36 10.124 4.081l-4.573 3.88c-1.881-1.702-3.792-2.553-5.733-2.553-1.138 0-2.078.261-2.821.784-.728.509-1.092 1.206-1.092 2.091 0 .63.28 1.193.842 1.688a11.23 11.23 0 0 0 2.138 1.488c.395.215.887.456 1.479.724.607.268 1.16.529 1.661.784l1.843.824c4.914 2.319 7.371 5.2 7.371 8.645 0 2.506-.994 4.557-2.98 6.152-2.003 1.608-4.657 2.412-7.963 2.412-2.533 0-4.854-.442-6.962-1.327-2.093-.884-3.815-2.084-5.165-3.598l4.619-3.961c2.184 2.305 4.717 3.458 7.599 3.458 1.289 0 2.351-.308 3.185-.925.849-.616 1.274-1.38 1.274-2.292 0-.75-.432-1.487-1.297-2.211-.88-.777-1.721-1.34-2.525-1.689a144.245 144.245 0 0 0-3.663-1.729c-5.218-2.278-7.826-5.079-7.826-8.403Z"/><defs><linearGradient id="a" x1="134" x2="130" y1="246" y2="246" gradientUnits="userSpaceOnUse"><stop stop-color="#F5C959"/><stop offset="1" stop-color="#C69A40"/></linearGradient><linearGradient id="b" x1="238.5" x2="234.5" y1="191.567" y2="191.567" gradientUnits="userSpaceOnUse"><stop stop-color="#F5C959"/><stop offset="1" stop-color="#C69A40"/></linearGradient><linearGradient id="c" x1="241" x2="233" y1="25.827" y2="25.827" gradientUnits="userSpaceOnUse"><stop offset=".231" stop-color="#F5C959"/><stop offset=".827" stop-color="#C69A40"/></linearGradient><linearGradient id="d" x1="343" x2="339" y1="213" y2="213" gradientUnits="userSpaceOnUse"><stop stop-color="#F5C959"/><stop offset="1" stop-color="#C69A40"/></linearGradient><linearGradient id="e" x1="341" x2="337" y1="246" y2="246" gradientUnits="userSpaceOnUse"><stop stop-color="#F5C959"/><stop offset="1" stop-color="#C69A40"/></linearGradient><linearGradient id="f" x1="238" x2="234" y1="90" y2="90" gradientUnits="userSpaceOnUse"><stop stop-color="#DEA940"/><stop offset="1" stop-color="#B18C3D"/></linearGradient><linearGradient id="g" x1="236" x2="236" y1="497.211" y2="506.05" gradientUnits="userSpaceOnUse"><stop stop-color="#FEC947"/><stop offset=".366" stop-color="#FEC947"/><stop offset=".375" stop-color="#FEC63E"/><stop offset=".667" stop-color="#FEC63E"/><stop offset=".676" stop-color="#FCCE5E"/><stop offset="1" stop-color="#FCCE5E"/></linearGradient></defs></svg>